# xmcd CD database file
#
# Track frame offsets:
#	151
#	15075
#	35972
#	51457
#	71902
#	87636
#	116887
#	130959
#	146290
#	156308
#	177270
#	189310
#	201178
#	225639
#	246350
#	264739
#	282831
#
# Disc length: 3947 seconds
#
# Revision: 0
# Processed by: cddbd v1.5.1PL0 Copyright (c) Steve Scherf et al.
# Submitted via: NeoAudio 9.9.9
#
DISCID=040f6911
DTITLE=Joe Cocker - The Best Early Years (vol.1)
DYEAR=2001
DGENRE=Blues
TTITLE0=Pardon Me Sir
TTITLE1=Feeling Alright
TTITLE2=Dear Landlord
TTITLE3=High Time We Went
TTITLE4=Bye Bye Blackbird
TTITLE5=Bird On A Wire
TTITLE6=She Don't Mind
TTITLE7=Change In Louise
TTITLE8=Lawdy Miss Clawdy
TTITLE9=Black-Eyed Blues
TTITLE10=Marjorine
TTITLE11=She Came In Through The Bathroom Window
TTITLE12=Something To Say
TTITLE13=Hitchcock Railway
TTITLE14=Midnight Rider
TTITLE15=Do I Still Figure In Your Life&
TTITLE16=That's Your Business
EXTD=YEAR: 2001
EXTT0=
EXTT1=
EXTT2=
EXTT3=
EXTT4=
EXTT5=
EXTT6=
EXTT7=
EXTT8=
EXTT9=
EXTT10=
EXTT11=
EXTT12=
EXTT13=
EXTT14=
EXTT15=
EXTT16=
PLAYORDER=
